<?xml version="1.0" standalone="no"?>
<!DOCTYPE svg PUBLIC "-//W3C//DTD SVG 20010904//EN"
 "http://www.w3.org/TR/2001/REC-SVG-20010904/DTD/svg10.dtd">
<svg version="1.0" xmlns="http://www.w3.org/2000/svg"
 width="677.000000pt" height="147.000000pt" viewBox="0 0 677.000000 147.000000"
 preserveAspectRatio="xMidYMid meet">
<metadata>
Created by potrace 1.16, written by Peter Selinger 2001-2019
</metadata>
<g transform="translate(0.000000,147.000000) scale(0.100000,-0.100000)"
fill="#000000" stroke="none">
<path d="M200 761 l0 -520 -47 -4 c-27 -2 45 -4 159 -5 218 -2 299 7 327 38
56 63 61 83 60 240 -1 182 -26 239 -113 261 -52 13 -59 25 -18 34 38 9 66 35
80 74 25 70 9 351 -19 351 -4 0 -20 11 -35 25 -20 19 -37 25 -68 24 -40 -1
-41 -1 -13 -12 23 -9 31 -23 49 -80 17 -58 20 -87 16 -185 -6 -147 -20 -186
-75 -201 -21 -6 -75 -11 -120 -11 l-83 0 0 245 0 245 -50 0 -50 0 0 -519z
m352 -10 c10 -12 22 -21 26 -21 34 0 47 -349 16 -420 -25 -55 -45 -63 -176
-68 l-118 -4 0 264 c0 146 3 268 8 273 4 4 56 5 116 2 92 -5 111 -9 128 -26z"/>
<path d="M820 764 l0 -515 28 3 27 3 3 513 2 512 -30 0 -30 0 0 -516z"/>
<path d="M1108 763 l-3 -518 -50 -6 c-27 -3 18 -6 100 -6 83 0 128 3 100 6
l-50 6 -3 263 -2 262 180 0 180 0 0 -265 0 -264 -67 -4 c-38 -2 -3 -3 77 -4
80 0 127 3 105 6 l-40 6 -3 518 -2 517 -35 0 -35 0 0 -240 0 -240 -180 0 -180
0 0 240 0 240 -45 0 -45 0 -2 -517z"/>
<path d="M2200 774 c3 -313 1 -509 -4 -515 -6 -5 6 -9 35 -9 l44 0 0 262 0
263 100 6 100 5 -103 2 -103 2 3 245 3 245 -40 0 -40 0 5 -506z"/>
<path d="M2467 1266 c58 -27 68 -61 68 -236 0 -130 -3 -160 -18 -187 -25 -46
1 -45 41 2 39 44 45 77 41 219 -4 97 -7 119 -25 143 -25 33 -67 59 -109 68
l-30 6 32 -15z"/>
<path d="M2905 1264 c-50 -26 -94 -75 -110 -124 -13 -40 -15 -101 -13 -391 3
-336 4 -345 26 -391 23 -47 97 -108 131 -108 9 0 -1 11 -21 25 -26 18 -41 39
-55 77 -16 48 -18 89 -18 408 0 379 4 421 49 473 13 15 34 31 47 36 13 5 17
10 9 10 -8 1 -28 -6 -45 -15z"/>
<path d="M3105 1269 c48 -29 75 -63 85 -113 8 -34 10 -176 8 -426 -3 -361 -4
-376 -24 -408 -12 -19 -34 -42 -50 -53 -19 -12 -23 -19 -13 -19 18 0 87 44
107 69 46 59 47 67 47 446 l0 360 -25 44 c-29 52 -83 97 -125 106 -27 6 -28 5
-10 -6z"/>
<path d="M3538 1260 c-49 -26 -94 -83 -107 -136 -18 -70 -15 -668 4 -730 14
-49 60 -102 112 -132 37 -20 51 -13 16 9 -73 46 -87 142 -80 551 3 192 9 317
16 340 14 43 55 96 85 108 13 5 15 9 6 9 -8 0 -31 -9 -52 -19z"/>
<path d="M3745 1271 c30 -14 71 -62 85 -101 17 -47 26 -600 11 -728 -11 -102
-29 -141 -77 -173 -18 -12 -23 -19 -13 -19 34 0 108 61 131 108 22 46 23 56
26 375 2 212 -1 347 -8 380 -17 79 -79 148 -146 162 -22 4 -25 3 -9 -4z"/>
<path d="M4145 1264 c-80 -41 -99 -86 -93 -218 5 -126 23 -154 174 -276 152
-123 167 -148 172 -285 5 -121 -8 -175 -49 -209 -34 -29 -31 -33 9 -12 34 18
65 51 87 95 13 27 16 55 13 145 -3 105 -5 116 -33 162 -20 32 -73 83 -154 149
-157 129 -165 141 -166 264 0 111 14 155 59 182 37 23 23 25 -19 3z"/>
<path d="M4565 1270 c-3 -5 33 -10 92 -12 l98 -3 0 -503 0 -502 35 0 35 0 -3
491 c-2 362 0 495 9 505 8 10 36 14 100 14 53 0 89 4 89 10 0 13 -447 14 -455
0z"/>
<path d="M5405 765 l0 -515 35 0 35 0 -3 237 c-2 131 0 248 3 260 5 23 6 23
168 21 l162 -3 0 -258 0 -257 35 0 35 0 0 515 0 515 -35 0 -35 0 3 -222 c2
-123 0 -233 -3 -245 -5 -23 -8 -23 -165 -23 -158 0 -160 0 -165 23 -4 12 -5
123 -3 245 l3 222 -35 0 -35 0 0 -515z"/>
<path d="M6085 765 l0 -515 40 0 40 0 0 247 0 248 105 5 105 6 -105 4 -105 5
0 258 0 257 -40 0 -40 0 0 -515z"/>
<path d="M6357 1266 c60 -27 68 -52 71 -232 3 -146 2 -167 -17 -208 -14 -33
-16 -46 -7 -46 14 0 59 45 75 77 17 33 14 285 -3 327 -17 41 -69 82 -116 90
l-35 7 32 -15z"/>
<path d="M2530 742 c37 -37 43 -81 38 -265 -3 -129 -5 -149 -24 -174 -11 -15
-32 -34 -45 -41 -24 -13 -23 -13 6 -7 47 10 88 38 110 75 18 31 20 52 20 185
0 126 -3 155 -18 183 -19 34 -70 72 -99 72 -13 0 -10 -7 12 -28z"/>
<path d="M6403 730 c33 -21 41 -63 46 -253 6 -183 7 -189 30 -208 13 -10 35
-19 49 -19 25 0 25 0 6 21 -17 19 -20 42 -24 203 -3 109 -10 189 -17 201 -18
32 -45 53 -78 60 -25 5 -27 4 -12 -5z"/>
<path d="M4037 593 c-4 -3 -7 -59 -7 -124 l0 -117 36 -36 c45 -45 74 -66 92
-66 7 0 0 12 -17 26 -40 34 -51 77 -51 212 0 111 0 112 -23 112 -13 0 -27 -3
-30 -7z"/>
</g>
</svg>
