<?xml version="1.0" standalone="no"?>
<!DOCTYPE svg PUBLIC "-//W3C//DTD SVG 20010904//EN"
 "http://www.w3.org/TR/2001/REC-SVG-20010904/DTD/svg10.dtd">
<svg version="1.0" xmlns="http://www.w3.org/2000/svg"
 width="677.000000pt" height="147.000000pt" viewBox="0 0 677.000000 147.000000"
 preserveAspectRatio="xMidYMid meet">
<metadata>
Created by potrace 1.16, written by Peter Selinger 2001-2019
</metadata>
<g transform="translate(0.000000,147.000000) scale(0.100000,-0.100000)"
fill="#000000" stroke="none">
<path d="M110 1290 c0 -5 20 -10 45 -10 l45 0 0 -515 0 -515 -45 0 c-25 0 -45
-4 -45 -10 0 -6 82 -10 228 -10 201 0 232 3 269 19 22 11 44 29 48 40 3 12 10
21 15 21 18 0 30 79 29 200 -1 171 -23 229 -98 260 l-34 14 35 32 c20 17 40
46 47 64 24 70 8 350 -20 350 -5 0 -19 10 -30 21 -37 37 -109 49 -306 49 -116
0 -183 -4 -183 -10z m396 -19 c1 -1 10 -9 21 -19 65 -55 73 -372 12 -433 -16
-16 -34 -19 -129 -19 l-110 0 0 243 0 242 102 -6 c57 -4 103 -7 104 -8z m40
-516 c3 -8 14 -17 23 -20 31 -10 41 -65 41 -230 0 -242 -10 -255 -197 -255
l-113 0 0 260 0 260 120 0 c97 0 122 -3 126 -15z"/>
<path d="M1010 1290 c0 -5 23 -10 50 -10 l50 0 0 -515 0 -515 -44 0 c-25 0
-48 -4 -51 -10 -4 -6 45 -10 140 -10 95 0 144 4 140 10 -3 5 -26 10 -51 10
l-44 0 0 260 0 260 180 0 180 0 0 -260 0 -260 -59 0 c-33 0 -63 -5 -66 -10 -4
-6 47 -10 145 -10 98 0 149 4 145 10 -3 5 -26 10 -51 10 l-44 0 0 515 0 515
56 0 c34 0 53 4 49 10 -4 6 -65 10 -151 10 -89 0 -144 -4 -144 -10 0 -6 27
-10 60 -10 l60 0 0 -240 0 -240 -180 0 -180 0 0 240 0 240 50 0 c28 0 50 5 50
10 0 6 -55 10 -145 10 -90 0 -145 -4 -145 -10z"/>
<path d="M2940 1293 c-8 -3 -19 -10 -25 -15 -5 -4 -25 -18 -44 -31 -20 -12
-46 -44 -60 -72 l-26 -49 -3 -344 c-2 -297 -1 -351 14 -394 20 -62 57 -105
105 -125 22 -8 39 -19 39 -24 0 -11 132 -12 146 -1 5 4 27 14 49 21 44 15 87
57 113 111 15 31 17 77 17 395 0 390 1 380 -57 454 -33 43 -125 81 -193 80
-33 0 -67 -3 -75 -6z m172 -32 c13 -5 37 -29 54 -52 l29 -44 3 -390 3 -390
-23 -44 c-34 -64 -64 -82 -143 -89 -91 -7 -125 11 -163 87 l-27 56 0 365 c0
379 4 420 44 462 9 9 22 24 29 33 15 17 153 22 194 6z"/>
<path d="M3546 1266 c-69 -39 -99 -75 -114 -138 -19 -74 -16 -670 3 -734 18
-62 75 -130 115 -139 17 -4 30 -11 30 -16 0 -10 133 -13 143 -2 4 3 28 14 54
22 59 20 107 79 122 151 14 65 14 649 0 709 -13 56 -63 129 -97 142 -15 5 -39
16 -54 24 -15 9 -50 15 -85 15 -47 -1 -69 -7 -117 -34z m212 -10 c16 -8 41
-38 57 -68 l30 -53 0 -365 c0 -420 -2 -435 -77 -486 -36 -25 -50 -29 -114 -29
-69 0 -75 2 -108 34 -57 55 -61 90 -61 481 0 381 3 405 59 465 33 34 35 35
110 35 47 0 88 -6 104 -14z"/>
<path d="M820 766 l0 -526 25 0 c17 0 26 7 30 23 3 12 4 247 3 522 l-3 500
-27 3 -28 3 0 -525z"/>
<path d="M2120 1280 c0 -5 18 -10 40 -10 l40 0 0 -495 c0 -272 0 -498 0 -502
0 -5 -15 -9 -35 -11 -19 -2 -35 -7 -35 -13 0 -13 376 -12 402 2 33 18 69 52
86 84 14 24 17 60 17 180 0 188 -7 203 -123 271 -2 1 11 17 29 35 50 54 59 86
59 206 0 141 -10 172 -67 222 l-46 41 -183 0 c-116 0 -184 -4 -184 -10z m374
-46 c30 -31 36 -45 42 -101 9 -87 0 -243 -16 -273 -29 -57 -58 -69 -157 -70
l-93 0 0 240 0 240 95 0 94 0 35 -36z m4 -478 c63 -33 67 -43 70 -222 3 -150
2 -168 -17 -208 -12 -23 -33 -48 -47 -54 -14 -7 -72 -12 -129 -12 l-105 0 0
255 0 255 100 0 c67 0 110 -5 128 -14z"/>
<path d="M4131 1263 c-65 -39 -84 -89 -79 -212 5 -131 22 -158 174 -281 153
-123 167 -147 172 -287 5 -112 -5 -154 -43 -196 -24 -25 -31 -27 -114 -27 -98
0 -107 5 -136 73 -10 25 -15 71 -15 152 0 107 -1 115 -19 115 -51 0 -51 -1
-51 -181 0 -106 4 -169 10 -169 6 0 10 21 10 48 l1 47 21 -28 c41 -55 90 -77
172 -77 105 0 157 25 196 93 30 51 31 55 28 168 -3 109 -5 118 -33 165 -20 32
-73 83 -154 149 -159 130 -166 141 -166 270 0 106 15 154 54 175 11 5 50 10
88 10 113 0 133 -26 142 -185 6 -91 8 -100 26 -100 18 0 20 8 23 90 1 50 -2
117 -7 150 -7 51 -9 54 -10 21 l-1 -40 -27 27 c-66 62 -183 76 -262 30z"/>
<path d="M5340 1280 c0 -5 16 -10 35 -10 l35 0 0 -505 0 -505 -40 0 c-22 0
-40 -4 -40 -10 0 -6 49 -10 127 -10 79 0 123 4 117 9 -5 6 -29 11 -54 13 l-45
3 -3 230 c-1 127 0 240 3 253 5 22 6 22 168 20 l162 -3 0 -250 0 -250 -42 -3
c-24 -2 -43 -7 -43 -13 0 -5 50 -9 115 -9 70 0 115 4 115 10 0 6 -18 10 -40
10 l-40 0 0 505 0 505 40 0 c22 0 40 5 40 10 0 6 -45 10 -115 10 -70 0 -115
-4 -115 -10 0 -5 20 -10 45 -10 l45 0 0 -224 c0 -123 -3 -231 -6 -240 -5 -14
-29 -16 -165 -16 -156 0 -159 0 -164 23 -3 12 -4 119 -3 237 l3 215 43 3 c23
2 42 7 42 13 0 5 -48 9 -110 9 -67 0 -110 -4 -110 -10z"/>
<path d="M6020 1280 c0 -5 16 -10 35 -10 l35 0 0 -505 0 -505 -29 0 c-17 0
-33 -4 -36 -10 -4 -6 33 -10 105 -10 72 0 109 4 105 10 -3 6 -22 10 -41 10
l-34 0 2 243 3 242 101 3 c97 3 103 1 133 -23 43 -36 51 -77 51 -252 0 -83 4
-163 10 -177 5 -14 23 -32 39 -41 34 -17 101 -20 101 -5 0 6 -10 10 -22 10
-57 1 -68 38 -68 234 0 134 -2 152 -22 187 -13 23 -37 46 -59 57 -33 16 -35
20 -19 29 9 6 31 33 48 59 l32 47 0 139 c0 159 -8 189 -67 243 l-38 35 -182 0
c-116 0 -183 -4 -183 -10z m368 -44 l37 -34 3 -169 3 -168 -30 -47 -31 -48
-105 0 -105 0 0 250 0 250 95 0 c95 0 96 0 133 -34z"/>
<path d="M4567 1274 c-11 -12 -8 -274 3 -274 6 0 10 50 10 130 l0 131 88 -3
87 -3 3 -497 2 -498 -35 0 c-19 0 -35 -4 -35 -10 0 -13 207 -13 215 -1 3 6
-14 11 -37 13 l-43 3 -3 484 c-2 360 0 487 9 498 9 10 33 13 93 11 l81 -3 3
-127 c1 -77 7 -128 13 -128 6 0 9 51 7 138 l-3 137 -226 3 c-124 1 -228 -1
-232 -4z"/>
</g>
</svg>
